# xmcd
#
# Track frame offsets:
#	150
#	17595
#	35622
#	59502
#	75115
#	95742
#	109917
#	129745
#	149662
#	166340
#	192227
#	212597
#	232590
#	255112
#	272247
#
# Disc length: 3806 seconds
#
# Revision: 0
# Processed by: cddbd v1.5.2PL0 Copyright (c) Steve Scherf et al.
# Submitted via: EasyCDDAExtractor 10.0.1.1
#
DISCID=c80edc0f
DTITLE=Scud Mountain Boys - Dance The Night Away
DYEAR=1995
DGENRE=Country
TTITLE0=Freight Of Fire
TTITLE1=One Hand
TTITLE2=Peter Graves' Anatomy
TTITLE3=Letter To Bread
TTITLE4=Television
TTITLE5=(She Took His) Picture
TTITLE6=Where's The Playground Susie
TTITLE7=Combine
TTITLE8=Silo
TTITLE9=Reservoir
TTITLE10=Sangre De Cristo
TTITLE11=Sweet Sally
TTITLE12=Closin' Time
TTITLE13=Kneeling
TTITLE14=Helen
EXTD=
EXTT0=
EXTT1=
EXTT2=
EXTT3=
EXTT4=
EXTT5=
EXTT6=
EXTT7=
EXTT8=
EXTT9=
EXTT10=
EXTT11=
EXTT12=
EXTT13=
EXTT14=
PLAYORDER=
